<mxfile host="app.diagrams.net" modified="2022-11-22T06:26:56.130Z" agent="5.0 (X11)" etag="CY9ySuJkmC-QBVosmqgb" version="20.5.3" type="github">
  <diagram id="C5RBs43oDa-KdzZeNtuy" name="Page-1">
    <mxGraphModel dx="1088" dy="744" grid="1" gridSize="10" guides="1" tooltips="1" connect="1" arrows="1" fold="1" page="1" pageScale="1" pageWidth="1600" pageHeight="1200" math="0" shadow="0">
      <root>
        <mxCell id="WIyWlLk6GJQsqaUBKTNV-0" />
        <mxCell id="WIyWlLk6GJQsqaUBKTNV-1" parent="WIyWlLk6GJQsqaUBKTNV-0" />
        <mxCell id="YIfeJS2Iha7Kot0naYwr-30" value="" style="edgeStyle=orthogonalEdgeStyle;rounded=0;orthogonalLoop=1;jettySize=auto;html=1;" edge="1" parent="WIyWlLk6GJQsqaUBKTNV-1" source="YIfeJS2Iha7Kot0naYwr-0" target="YIfeJS2Iha7Kot0naYwr-1">
          <mxGeometry relative="1" as="geometry" />
        </mxCell>
        <mxCell id="YIfeJS2Iha7Kot0naYwr-0" value="start" style="ellipse;whiteSpace=wrap;html=1;fillColor=#d5e8d4;strokeColor=#82b366;" vertex="1" parent="WIyWlLk6GJQsqaUBKTNV-1">
          <mxGeometry x="30" y="650" width="60" height="50" as="geometry" />
        </mxCell>
        <mxCell id="YIfeJS2Iha7Kot0naYwr-29" value="" style="edgeStyle=orthogonalEdgeStyle;rounded=0;orthogonalLoop=1;jettySize=auto;html=1;" edge="1" parent="WIyWlLk6GJQsqaUBKTNV-1" source="YIfeJS2Iha7Kot0naYwr-1" target="YIfeJS2Iha7Kot0naYwr-4">
          <mxGeometry relative="1" as="geometry" />
        </mxCell>
        <mxCell id="YIfeJS2Iha7Kot0naYwr-1" value="&lt;div&gt;Parameter&lt;/div&gt;&lt;div&gt;Handle&lt;br&gt;&lt;/div&gt;" style="rounded=0;whiteSpace=wrap;html=1;fillColor=#d0cee2;strokeColor=#56517e;" vertex="1" parent="WIyWlLk6GJQsqaUBKTNV-1">
          <mxGeometry x="140" y="650" width="70" height="50" as="geometry" />
        </mxCell>
        <mxCell id="YIfeJS2Iha7Kot0naYwr-21" style="edgeStyle=orthogonalEdgeStyle;rounded=0;orthogonalLoop=1;jettySize=auto;html=1;entryX=0.5;entryY=1;entryDx=0;entryDy=0;" edge="1" parent="WIyWlLk6GJQsqaUBKTNV-1" source="YIfeJS2Iha7Kot0naYwr-4" target="YIfeJS2Iha7Kot0naYwr-9">
          <mxGeometry relative="1" as="geometry" />
        </mxCell>
        <mxCell id="YIfeJS2Iha7Kot0naYwr-31" style="edgeStyle=orthogonalEdgeStyle;rounded=0;orthogonalLoop=1;jettySize=auto;html=1;entryX=0.5;entryY=1;entryDx=0;entryDy=0;" edge="1" parent="WIyWlLk6GJQsqaUBKTNV-1" source="YIfeJS2Iha7Kot0naYwr-4" target="YIfeJS2Iha7Kot0naYwr-8">
          <mxGeometry relative="1" as="geometry" />
        </mxCell>
        <mxCell id="YIfeJS2Iha7Kot0naYwr-4" value="Board_type" style="html=1;whiteSpace=wrap;aspect=fixed;shape=isoRectangle;fillColor=#b0e3e6;strokeColor=#0e8088;" vertex="1" parent="WIyWlLk6GJQsqaUBKTNV-1">
          <mxGeometry x="270" y="637.5" width="125" height="75" as="geometry" />
        </mxCell>
        <mxCell id="YIfeJS2Iha7Kot0naYwr-5" value="End" style="strokeWidth=2;html=1;shape=mxgraph.flowchart.terminator;whiteSpace=wrap;fillColor=#f8cecc;strokeColor=#b85450;" vertex="1" parent="WIyWlLk6GJQsqaUBKTNV-1">
          <mxGeometry x="920" y="620" width="100" height="60" as="geometry" />
        </mxCell>
        <mxCell id="YIfeJS2Iha7Kot0naYwr-25" style="edgeStyle=orthogonalEdgeStyle;rounded=0;orthogonalLoop=1;jettySize=auto;html=1;entryX=0;entryY=0.5;entryDx=0;entryDy=0;entryPerimeter=0;" edge="1" parent="WIyWlLk6GJQsqaUBKTNV-1" source="YIfeJS2Iha7Kot0naYwr-6" target="YIfeJS2Iha7Kot0naYwr-5">
          <mxGeometry relative="1" as="geometry" />
        </mxCell>
        <mxCell id="YIfeJS2Iha7Kot0naYwr-6" value="Reset take effect&lt;br&gt;&lt;div&gt;Delay 1s&lt;/div&gt;" style="strokeWidth=2;html=1;shape=mxgraph.flowchart.delay;whiteSpace=wrap;fillColor=#dae8fc;strokeColor=#6c8ebf;" vertex="1" parent="WIyWlLk6GJQsqaUBKTNV-1">
          <mxGeometry x="770" y="571" width="100" height="60" as="geometry" />
        </mxCell>
        <mxCell id="YIfeJS2Iha7Kot0naYwr-7" value="CP2102" style="rounded=0;whiteSpace=wrap;html=1;fillColor=#f5f5f5;gradientColor=#b3b3b3;strokeColor=#666666;" vertex="1" parent="WIyWlLk6GJQsqaUBKTNV-1">
          <mxGeometry x="580" y="570" width="60" height="30" as="geometry" />
        </mxCell>
        <mxCell id="YIfeJS2Iha7Kot0naYwr-27" style="edgeStyle=orthogonalEdgeStyle;rounded=0;orthogonalLoop=1;jettySize=auto;html=1;entryX=0;entryY=0.5;entryDx=0;entryDy=0;entryPerimeter=0;" edge="1" parent="WIyWlLk6GJQsqaUBKTNV-1" source="YIfeJS2Iha7Kot0naYwr-8" target="YIfeJS2Iha7Kot0naYwr-11">
          <mxGeometry relative="1" as="geometry" />
        </mxCell>
        <mxCell id="YIfeJS2Iha7Kot0naYwr-8" value="Adanced platform" style="rounded=1;whiteSpace=wrap;html=1;direction=south;fillColor=#d0cee2;strokeColor=#56517e;" vertex="1" parent="WIyWlLk6GJQsqaUBKTNV-1">
          <mxGeometry x="440" y="574.5" width="60" height="55.5" as="geometry" />
        </mxCell>
        <mxCell id="YIfeJS2Iha7Kot0naYwr-28" style="edgeStyle=orthogonalEdgeStyle;rounded=0;orthogonalLoop=1;jettySize=auto;html=1;entryX=0;entryY=0.5;entryDx=0;entryDy=0;entryPerimeter=0;" edge="1" parent="WIyWlLk6GJQsqaUBKTNV-1" source="YIfeJS2Iha7Kot0naYwr-9" target="YIfeJS2Iha7Kot0naYwr-17">
          <mxGeometry relative="1" as="geometry" />
        </mxCell>
        <mxCell id="YIfeJS2Iha7Kot0naYwr-9" value="&lt;div&gt;Basic&lt;/div&gt;&lt;div&gt;platform&lt;br&gt;&lt;/div&gt;" style="rounded=1;whiteSpace=wrap;html=1;direction=south;fillColor=#d0cee2;strokeColor=#56517e;" vertex="1" parent="WIyWlLk6GJQsqaUBKTNV-1">
          <mxGeometry x="440" y="687.25" width="60" height="52.75" as="geometry" />
        </mxCell>
        <mxCell id="YIfeJS2Iha7Kot0naYwr-11" value="" style="strokeWidth=2;html=1;shape=mxgraph.flowchart.annotation_2;align=left;labelPosition=right;pointerEvents=1;" vertex="1" parent="WIyWlLk6GJQsqaUBKTNV-1">
          <mxGeometry x="530" y="582" width="50" height="38" as="geometry" />
        </mxCell>
        <mxCell id="YIfeJS2Iha7Kot0naYwr-12" value="SP339E" style="rounded=0;whiteSpace=wrap;html=1;fillColor=#f5f5f5;gradientColor=#b3b3b3;strokeColor=#666666;" vertex="1" parent="WIyWlLk6GJQsqaUBKTNV-1">
          <mxGeometry x="580" y="607.5" width="60" height="30" as="geometry" />
        </mxCell>
        <mxCell id="YIfeJS2Iha7Kot0naYwr-16" value="omap 8250" style="rounded=0;whiteSpace=wrap;html=1;fillColor=#f5f5f5;gradientColor=#b3b3b3;strokeColor=#666666;" vertex="1" parent="WIyWlLk6GJQsqaUBKTNV-1">
          <mxGeometry x="580" y="681.25" width="60" height="30" as="geometry" />
        </mxCell>
        <mxCell id="YIfeJS2Iha7Kot0naYwr-17" value="" style="strokeWidth=2;html=1;shape=mxgraph.flowchart.annotation_2;align=left;labelPosition=right;pointerEvents=1;" vertex="1" parent="WIyWlLk6GJQsqaUBKTNV-1">
          <mxGeometry x="530" y="693.25" width="50" height="38" as="geometry" />
        </mxCell>
        <mxCell id="YIfeJS2Iha7Kot0naYwr-18" value="sp339e" style="rounded=0;whiteSpace=wrap;html=1;fillColor=#f5f5f5;gradientColor=#b3b3b3;strokeColor=#666666;" vertex="1" parent="WIyWlLk6GJQsqaUBKTNV-1">
          <mxGeometry x="580" y="718.75" width="60" height="30" as="geometry" />
        </mxCell>
        <mxCell id="YIfeJS2Iha7Kot0naYwr-22" style="edgeStyle=orthogonalEdgeStyle;rounded=0;orthogonalLoop=1;jettySize=auto;html=1;exitX=0;exitY=0.5;exitDx=0;exitDy=0;exitPerimeter=0;entryX=0;entryY=0.5;entryDx=0;entryDy=0;entryPerimeter=0;" edge="1" parent="WIyWlLk6GJQsqaUBKTNV-1" source="YIfeJS2Iha7Kot0naYwr-19" target="YIfeJS2Iha7Kot0naYwr-6">
          <mxGeometry relative="1" as="geometry" />
        </mxCell>
        <mxCell id="YIfeJS2Iha7Kot0naYwr-19" value="" style="strokeWidth=2;html=1;shape=mxgraph.flowchart.annotation_2;align=left;labelPosition=right;pointerEvents=1;rotation=-180;" vertex="1" parent="WIyWlLk6GJQsqaUBKTNV-1">
          <mxGeometry x="640" y="574.5" width="70" height="53" as="geometry" />
        </mxCell>
        <mxCell id="YIfeJS2Iha7Kot0naYwr-32" style="edgeStyle=orthogonalEdgeStyle;rounded=0;orthogonalLoop=1;jettySize=auto;html=1;entryX=0.588;entryY=0.994;entryDx=0;entryDy=0;entryPerimeter=0;" edge="1" parent="WIyWlLk6GJQsqaUBKTNV-1" source="YIfeJS2Iha7Kot0naYwr-20" target="YIfeJS2Iha7Kot0naYwr-5">
          <mxGeometry relative="1" as="geometry" />
        </mxCell>
        <mxCell id="YIfeJS2Iha7Kot0naYwr-20" value="" style="strokeWidth=2;html=1;shape=mxgraph.flowchart.annotation_2;align=left;labelPosition=right;pointerEvents=1;rotation=-180;" vertex="1" parent="WIyWlLk6GJQsqaUBKTNV-1">
          <mxGeometry x="640" y="690" width="70" height="53" as="geometry" />
        </mxCell>
      </root>
    </mxGraphModel>
  </diagram>
</mxfile>
